<svg width="90" height="90" viewBox="0 0 90 90" fill="none" xmlns="http://www.w3.org/2000/svg">
<path d="M47.5142 18.9583V57.8021L62.8163 42.5L66.3476 45.6263L45.1601 66.8139L23.9726 45.6263L27.5038 42.5L42.8059 57.8021V18.9583H47.5142ZM45.1601 89.5834C33.2972 89.5834 21.9201 84.8708 13.5318 76.4825C5.14343 68.0941 0.430908 56.7171 0.430908 44.8542C0.430908 32.9913 5.14343 21.6142 13.5318 13.2259C21.9201 4.83752 33.2972 0.125 45.1601 0.125C57.023 0.125 68.4 4.83752 76.7884 13.2259C85.1767 21.6142 89.8892 32.9913 89.8892 44.8542C89.8892 56.7171 85.1767 68.0941 76.7884 76.4825C68.4 84.8708 57.023 89.5834 45.1601 89.5834ZM45.1601 84.875C55.7743 84.875 65.9537 80.6586 73.4591 73.1532C80.9644 65.6478 85.1809 55.4684 85.1809 44.8542C85.1809 34.24 80.9644 24.0605 73.4591 16.5552C65.9537 9.0498 55.7743 4.83333 45.1601 4.83333C34.5459 4.83333 24.3664 9.0498 16.8611 16.5552C9.35571 24.0605 5.13924 34.24 5.13924 44.8542C5.13924 55.4684 9.35571 65.6478 16.8611 73.1532C24.3664 80.6586 34.5459 84.875 45.1601 84.875Z" fill="#EDAC2C" fill-opacity="0.3"/>
</svg>
