<svg width="50" height="50" viewBox="0 0 50 50" fill="none" xmlns="http://www.w3.org/2000/svg">
<path d="M24.9999 0.929932C11.7082 0.929932 0.833221 11.7808 0.833221 25.1449C0.833221 37.2283 9.67822 47.2574 21.2299 49.0699V32.1533H15.0916V25.1449H21.2299V19.8041C21.2299 13.7383 24.8307 10.4033 30.3649 10.4033C32.9991 10.4033 35.7541 10.8624 35.7541 10.8624V16.8316H32.7091C29.7124 16.8316 28.7699 18.6924 28.7699 20.6016V25.1449H35.4882L34.4007 32.1533H28.7699V49.0699C34.4646 48.1705 39.6502 45.2649 43.3905 40.8776C47.1309 36.4902 49.1795 30.9102 49.1666 25.1449C49.1666 11.7808 38.2916 0.929932 24.9999 0.929932V0.929932Z" fill="white"/>
</svg>
