<svg width="327" height="61" viewBox="0 0 327 61" fill="none" xmlns="http://www.w3.org/2000/svg">
<path d="M28.6522 2.5226C35.8059 2.5226 41.6041 5.00756 46.0093 9.97746C50.4144 14.9474 52.6358 21.461 52.6358 29.5935C52.6358 34.9399 51.6192 39.6839 49.6237 43.7502C47.6282 47.8542 44.8044 51.0168 41.1523 53.2759C37.5002 55.5349 33.3209 56.6644 28.6146 56.6644H11.9729V2.5226H28.6522ZM28.6522 0H0L0.0753016 0.828317H1.09187C2.48495 0.828317 3.76508 1.28013 4.85695 2.2214C5.94882 3.16267 6.51359 4.29219 6.51359 5.64762V52.9747C6.43828 54.443 5.91117 55.6855 4.85695 56.7397C3.80273 57.794 2.56025 58.3211 1.09187 58.3211H0V59.1494H28.6522C37.6508 59.1494 44.9927 56.4385 50.6027 50.9792C56.2126 45.5575 58.9988 38.4038 58.9988 29.5559C58.9988 20.7079 56.2126 13.5543 50.6027 8.13257C44.955 2.71086 37.6508 0 28.6522 0Z" fill="white"/>
<path d="M167.77 58.3208V59.1492H202.07L206.701 47.0633H205.873C204.932 49.0964 203.953 50.7154 203.049 51.9579C202.108 53.2003 200.752 54.2546 198.983 55.1582C197.213 56.0618 195.03 56.5136 192.432 56.5136H179.179V35.0527H193.9C194.389 35.128 194.879 35.2033 195.331 35.3915C196.498 35.9563 197.1 37.0105 197.1 38.5918V39.6837H198.042V27.8614H197.1V28.9532C197.1 29.9698 196.799 30.7981 196.197 31.4758C195.594 32.1536 194.728 32.4924 193.636 32.4924H179.179V11.0315H196.761C198.004 11.0315 199.021 11.4456 199.811 12.3116C200.602 13.1399 200.978 14.1565 200.978 15.3613V16.6414L201.92 16.7167V7.07812C201.43 7.30403 200.301 7.56759 198.531 7.90644C196.799 8.2453 194.766 8.3959 192.432 8.3959H167.733V9.22422H168.9C170.255 9.22422 171.422 9.63838 172.364 10.5043C173.305 11.3327 173.794 12.3869 173.794 13.6294V53.7651C173.719 55.0076 173.23 56.0618 172.326 56.9278C171.385 57.7937 170.255 58.2455 168.9 58.2455H167.77V58.3208V58.3208ZM157.718 9.29952V8.4712H141.754V9.29952H143.184C144.427 9.29952 145.481 9.71368 146.385 10.542C147.288 11.3703 147.778 12.3492 147.891 13.5541V48.6446L104.028 7.26638L103.086 7.19108L103.237 8.54651C103.613 11.2574 103.839 14.3071 103.839 17.7709V53.9534C103.839 55.1958 103.388 56.2501 102.484 57.0784C101.58 57.9067 100.488 58.3585 99.1706 58.3585H97.7399V59.1868H113.704V58.3585H112.273C110.993 58.3585 109.863 57.9443 108.96 57.0784C108.056 56.2501 107.604 55.1958 107.604 53.9534V18.6746L151.618 60.354H152.371L152.221 58.848C151.844 55.9112 151.618 52.8238 151.618 49.5482V13.5164C151.656 12.3492 152.145 11.3327 153.049 10.5043C153.953 9.67603 155.007 9.26187 156.249 9.26187H157.718V9.29952V9.29952ZM68.6358 58.3208V59.1492H87.8377L87.7624 58.3208H86.6706C85.1645 58.3208 83.8091 57.869 82.6796 57.0031C81.5501 56.1371 80.9477 55.0829 80.91 53.8404V13.667C81.023 12.4245 81.6254 11.3703 82.7172 10.542C83.8091 9.71368 85.1269 9.26187 86.6329 9.26187H87.7248V8.43355H68.6358V9.26187H69.7277C71.3091 9.26187 72.6645 9.71368 73.794 10.6173C74.9235 11.5209 75.4883 12.5751 75.4883 13.8176V53.7274C75.4883 54.9699 74.9235 56.0241 73.794 56.9278C72.6645 57.8314 71.3467 58.2832 69.803 58.2832H68.6358V58.3208V58.3208Z" fill="white"/>
<path d="M327 9.29974V8.47143H311.036V9.29974H312.467C313.709 9.29974 314.764 9.7139 315.667 10.5422C316.571 11.3705 317.06 12.3495 317.173 13.5543V48.6448L273.348 7.2666L272.406 7.1913L272.557 8.54673C272.934 11.2576 273.159 14.3073 273.159 17.7712V53.9536C273.159 55.196 272.708 56.2503 271.804 57.0786C270.9 57.9069 269.809 58.3587 268.491 58.3587H267.06V59.187H283.024V58.3587H281.593C280.313 58.3587 279.184 57.9446 278.28 57.0786C277.376 56.2503 276.925 55.196 276.925 53.9536V18.6748L320.938 60.3542H321.691L321.541 58.8482C321.164 55.9114 320.938 52.8241 320.938 49.5484V13.5166C320.976 12.3495 321.465 11.3329 322.369 10.5046C323.273 9.67625 324.327 9.26209 325.569 9.26209H327V9.29974ZM238.182 58.3211V59.1494H256.706V58.3211H255.614C254.146 58.3211 252.866 57.7939 251.811 56.7397C250.757 55.6855 250.193 54.443 250.193 52.9746V6.06178C250.23 4.5934 250.795 3.35092 251.849 2.33435C252.903 1.31778 254.146 0.828317 255.614 0.828317H256.706V0H238.182V0.828317H239.274C240.742 0.828317 241.985 1.31778 243.039 2.33435C244.093 3.35092 244.62 4.5934 244.696 6.06178V52.9746C244.62 54.443 244.093 55.6855 243.039 56.7397C241.985 57.7939 240.742 58.3211 239.274 58.3211H238.182Z" fill="white"/>
</svg>
